<svg width="128" height="128" viewBox="0 0 128 128" xmlns="http://www.w3.org/2000/svg">
  <defs>
    <linearGradient id="bg" x1="0" y1="0" x2="1" y2="1">
      <stop offset="0" stop-color="#7C86F6" />
      <stop offset="1" stop-color="#4F45C9" />
    </linearGradient>
    <clipPath id="round">
      <rect width="128" height="128" rx="30" />
    </clipPath>
    <clipPath id="lens">
      <circle cx="58" cy="60" r="28" />
    </clipPath>
  </defs>

  <g clip-path="url(#round)">
    <rect width="128" height="128" fill="url(#bg)" />

    <g fill="#ffffff" fill-opacity="0.4">
      <rect x="18" y="40" width="40" height="6" rx="3" />
      <rect x="18" y="52" width="58" height="6" rx="3" />
      <rect x="18" y="64" width="34" height="6" rx="3" />
      <rect x="18" y="76" width="50" height="6" rx="3" />
    </g>

    <g stroke="#ffffff" stroke-opacity="0.4" stroke-width="5" stroke-linecap="round" stroke-linejoin="round" fill="none">
      <path d="M 26 88 q -6 0 -6 7 q 0 6 -5 6 q 5 0 5 6 q 0 7 6 7" />
      <path d="M 36 88 q 6 0 6 7 q 0 6 5 6 q -5 0 -5 6 q 0 7 -6 7" />
    </g>

    <g clip-path="url(#lens)" fill="#ffffff">
      <rect x="18" y="40" width="40" height="6" rx="3" />
      <rect x="18" y="52" width="58" height="6" rx="3" />
      <rect x="18" y="64" width="34" height="6" rx="3" />
      <rect x="18" y="76" width="50" height="6" rx="3" />
    </g>

    <circle cx="58" cy="60" r="28" fill="none" stroke="#ffffff" stroke-width="9" />
    <line x1="79" y1="81" x2="107" y2="109" stroke="#ffffff" stroke-width="15" stroke-linecap="round" />

    <g>
      <path d="M 92 30 v -4 a 7.5 7.5 0 0 1 15 0 v 4" fill="none" stroke="#ffffff" stroke-opacity="0.9" stroke-width="5" stroke-linecap="round" />
      <rect x="88" y="30" width="23" height="18" rx="5" fill="#ffffff" fill-opacity="0.9" />
      <circle cx="99.5" cy="38" r="2.4" fill="#4F45C9" />
      <rect x="98.3" y="39" width="2.4" height="5" rx="1.2" fill="#4F45C9" />
    </g>
  </g>
</svg>
